<svg xmlns="http://www.w3.org/2000/svg" width="83.517" height="85.898" viewBox="0 0 83.517 85.898">
  <g id="decision-making" transform="translate(-7.105)">
    <path id="Path_28" data-name="Path 28" d="M302.72,211.559a3.788,3.788,0,0,0-4.941-.01L285.71,221.976a4.452,4.452,0,0,0-6.679-1.2l-10.45,8.606a11.052,11.052,0,0,0-4.04,8.56v7.441a3.182,3.182,0,0,0-1.1,2.407v12.2a1.257,1.257,0,0,0,2.513,0v-12.2a.678.678,0,0,1,.677-.677h15.345a.678.678,0,0,1,.677.677v12.2a1.257,1.257,0,0,0,2.513,0v-12.2a3.192,3.192,0,0,0-1.7-2.817V239.35l2.864-1.066a11.886,11.886,0,0,0,5.837-4.661L303.4,216.466A3.785,3.785,0,0,0,302.72,211.559ZM301.3,215.09l-11.228,17.156a9.39,9.39,0,0,1-4.611,3.682l-5,1.86a1.257,1.257,0,0,0,.439,2.435l.058,0v4.374h-13.9v-6.657a8.547,8.547,0,0,1,3.124-6.62l10.45-8.606a1.935,1.935,0,0,1,2.6,2.863l-4.123,4.123a1.257,1.257,0,0,0,1.777,1.777l4.123-4.123a4.415,4.415,0,0,0,1.261-2.534l13.156-11.367a1.257,1.257,0,0,1,1.874,1.639Z" transform="translate(-213.387 -175.346)" fill="#006a4e"/>
    <path id="Path_29" data-name="Path 29" d="M46.572,245.378v-7.441a11.063,11.063,0,0,0-3.957-8.488A1.257,1.257,0,1,0,41,231.372a8.555,8.555,0,0,1,3.06,6.564v6.657h-13.9v-4.374l.058,0a1.257,1.257,0,0,0,.439-2.435l-5-1.86a9.389,9.389,0,0,1-4.611-3.682L9.819,215.089a1.257,1.257,0,0,1,1.874-1.64l13.158,11.369a4.424,4.424,0,0,0,1.258,2.532l4.123,4.123a1.257,1.257,0,0,0,1.777-1.777l-4.123-4.123a1.935,1.935,0,0,1,2.6-2.863l6.3,5.188a1.257,1.257,0,1,0,1.6-1.94l-6.3-5.188a4.448,4.448,0,0,0-6.678,1.205L13.335,211.548a3.77,3.77,0,0,0-5.619,4.917l11.228,17.156a11.886,11.886,0,0,0,5.837,4.661l2.864,1.066v5.618a3.193,3.193,0,0,0-1.7,2.817v12.2a1.257,1.257,0,0,0,2.513,0v-12.2a.678.678,0,0,1,.677-.677H44.484a.678.678,0,0,1,.677.677v12.2a1.257,1.257,0,0,0,2.513,0v-12.2A3.182,3.182,0,0,0,46.572,245.378Z" transform="translate(0 -175.345)" fill="#006a4e"/>
    <path id="Path_30" data-name="Path 30" d="M31.017,39.809a19.9,19.9,0,1,0-19.9-19.9,19.927,19.927,0,0,0,19.9,19.9Zm0-37.3A17.391,17.391,0,1,1,13.626,19.9,17.411,17.411,0,0,1,31.017,2.513Z" transform="translate(-3.337 0)" fill="#006a4e"/>
    <path id="Path_31" data-name="Path 31" d="M79.668,85.753a3.77,3.77,0,0,0,5.288-.1l2.669-2.729a1.257,1.257,0,1,0-1.8-1.757L83.16,83.9a1.257,1.257,0,0,1-1.763.034l-3.77-3.572,1.729-1.824L80.82,79.92a1.98,1.98,0,0,0,2.765-.052l7.344-7.509,1.8,1.757-3.152,3.223a1.257,1.257,0,1,0,1.8,1.757l3.531-3.61A1.97,1.97,0,0,0,94.87,72.7L92.3,70.182a1.971,1.971,0,0,0-2.787.031l-7.35,7.515-1.47-1.393a1.971,1.971,0,0,0-2.786.075L75.43,79.022a1.973,1.973,0,0,0,.075,2.786Z" transform="translate(-56.429 -57.956)" fill="#006a4e"/>
    <path id="Path_32" data-name="Path 32" d="M283.877,39.809a19.922,19.922,0,0,0,12.785-4.65,1.257,1.257,0,0,0-1.615-1.925,17.377,17.377,0,1,1,3.334-3.732,1.257,1.257,0,0,0,2.095,1.389,19.905,19.905,0,1,0-16.6,8.918Z" transform="translate(-213.831)" fill="#006a4e"/>
    <path id="Path_33" data-name="Path 33" d="M339.429,58.822l-2.882-2.952a1.964,1.964,0,0,0-2.777-.033l-4.561,4.454-4.564-4.456a1.964,1.964,0,0,0-2.777.033l-2.882,2.951a1.964,1.964,0,0,0,.033,2.777l4.426,4.322-4.426,4.322a1.964,1.964,0,0,0-.033,2.777l2.882,2.951a1.951,1.951,0,0,0,1.382.592h.024A1.951,1.951,0,0,0,324.645,76l4.563-4.456L333.77,76a1.964,1.964,0,0,0,2.777-.033l2.882-2.952a1.967,1.967,0,0,0-.033-2.777l-4.424-4.32L339.4,61.6a1.966,1.966,0,0,0,.033-2.777Zm-7.134,6.2a1.257,1.257,0,0,0,0,1.8l4.952,4.835-2.115,2.166-5.046-4.928a1.256,1.256,0,0,0-1.756,0l-5.049,4.93-2.115-2.166,4.954-4.838a1.257,1.257,0,0,0,0-1.8l-4.954-4.838,2.115-2.166,5.049,4.93a1.257,1.257,0,0,0,1.756,0l5.046-4.928,2.115,2.166Z" transform="translate(-259.16 -46.015)" fill="#006a4e"/>
  </g>
</svg>
