<svg xmlns="http://www.w3.org/2000/svg" width="109.503" height="85.898" viewBox="0 0 109.503 85.898">
  <g id="diamond" transform="translate(0 -55.183)">
    <path id="Path_27" data-name="Path 27" d="M109.288,92.65,98.362,73.726l5.328-1.167a3.466,3.466,0,0,0,0-6.771l-6.3-1.381a.258.258,0,0,1-.2-.2l-1.381-6.3a3.466,3.466,0,0,0-6.771,0l-1.381,6.3a.258.258,0,0,1-.2.2l-6.3,1.381a3.4,3.4,0,0,0-2.506,2.148H15.41a1.6,1.6,0,0,0-1.389.8l-3.978,6.891a1.6,1.6,0,1,0,2.778,1.6l2.552-4.421L25.8,91.847H4.383l5.273-9.135a1.6,1.6,0,0,0-2.778-1.6L.215,92.649a1.6,1.6,0,0,0,.339,2.014l15.238,13.2-.1.442a.258.258,0,0,1-.2.2l-6.3,1.381a3.466,3.466,0,0,0,0,6.771l6.3,1.381a.259.259,0,0,1,.2.2l1.381,6.3a3.466,3.466,0,0,0,6.771,0l1.381-6.3a.259.259,0,0,1,.2-.2l1.686-.369L53.7,140.69a1.6,1.6,0,0,0,2.1,0l53.147-46.025a1.6,1.6,0,0,0,.339-2.015ZM54.711,90.114,44.319,71.144H65.106Zm13.1-17.235L78.207,91.847H57.42ZM52,91.847H31.218L41.612,72.879ZM28.51,90.114,18.118,71.144H38.9Zm24.6,4.942v38.3l-21.837-38.3Zm13.519,23.53a1.6,1.6,0,0,0-2.187.6L56.316,133.48V95.055H78.158L67.612,113.61a1.6,1.6,0,1,0,2.789,1.585L81.848,95.056H103.6L60.762,132.15l6.467-11.378a1.6,1.6,0,0,0-.6-2.187Zm17-26.738,5.749-10.494a3.39,3.39,0,0,0,3.052,1.811h0a3.4,3.4,0,0,0,3.385-2.724l.749-3.422,8.562,14.829ZM81.844,68.922l6.3-1.381A3.475,3.475,0,0,0,90.791,64.9l1.381-6.3a.258.258,0,0,1,.5,0l1.381,6.3A3.474,3.474,0,0,0,96.7,67.541l6.3,1.381a.258.258,0,0,1,0,.5l-6.3,1.381h0a3.475,3.475,0,0,0-2.643,2.644l-1.381,6.3a.258.258,0,0,1-.5,0l-1.381-6.3a3.475,3.475,0,0,0-2.644-2.644l-6.3-1.381a.258.258,0,0,1,0-.5Zm5.617,5.018a.259.259,0,0,1,.2.2l.574,2.621L80.915,90.113,70.521,71.144h8.506a3.434,3.434,0,0,0,2.131,1.415ZM24.738,114.9a3.476,3.476,0,0,0-2.644,2.644l-1.381,6.3a.258.258,0,0,1-.5,0l-1.381-6.3a3.475,3.475,0,0,0-2.644-2.644l-6.3-1.381a.258.258,0,0,1,0-.5l6.3-1.381a3.475,3.475,0,0,0,2.644-2.644l1.381-6.3a.258.258,0,0,1,.5,0l1.381,6.3a3.476,3.476,0,0,0,2.644,2.644l6.3,1.381a.258.258,0,0,1,0,.5Zm6.99,1.753a3.466,3.466,0,0,0,0-6.771l-6.3-1.381a.259.259,0,0,1-.2-.2L23.847,102a3.466,3.466,0,0,0-6.771,0l-.5,2.294L5.907,95.055h21.67l21.135,37.071L31.021,116.8Z" fill="#006a4e"/>
  </g>
</svg>
