<svg xmlns="http://www.w3.org/2000/svg" width="94.433" height="85.898" viewBox="0 0 94.433 85.898">
  <path id="gift" d="M91.141,23.5H86.394a17.994,17.994,0,0,0,.455-4.292,15.959,15.959,0,0,0-17.17-17.17c-9.289,0-17.037,9.748-21.462,16.861C43.791,11.786,36.043,2.038,26.755,2.038a15.959,15.959,0,0,0-17.17,17.17A17.994,17.994,0,0,0,10.04,23.5H5.292A4.292,4.292,0,0,0,1,27.793V49.255a4.292,4.292,0,0,0,4.292,4.292H9.585V83.594a4.292,4.292,0,0,0,4.292,4.292H82.556a4.292,4.292,0,0,0,4.292-4.292V53.547h4.292a4.292,4.292,0,0,0,4.292-4.292V27.793A4.292,4.292,0,0,0,91.141,23.5ZM26.755,10.623c4.777,0,10.383,6.795,14.2,12.877H29.141c-10.971,0-10.971-1.717-10.971-4.292C18.17,11.512,23.072,10.623,26.755,10.623ZM43.924,79.3H18.17V53.547H43.924Zm0-34.339H9.585V32.085H43.924ZM69.679,10.623c3.683,0,8.585.889,8.585,8.585,0,2.575,0,4.292-10.971,4.292H55.479C59.3,17.418,64.9,10.623,69.679,10.623ZM78.264,79.3H52.509V53.547H78.264Zm8.585-34.339H52.509V32.085H86.849Z" transform="translate(-1 -1.988)" fill="#006a4e"/>
</svg>
