<svg xmlns="http://www.w3.org/2000/svg" width="85.898" height="85.898" viewBox="0 0 85.898 85.898">
  <path id="satisfied" d="M42.949,85.9A42.949,42.949,0,1,1,85.9,42.949,43,43,0,0,1,42.949,85.9Zm0-80.53A37.581,37.581,0,1,0,80.53,42.949,37.622,37.622,0,0,0,42.949,5.369Zm0,59.055c-17.837,0-21.2-9.484-21.338-9.889a2.684,2.684,0,0,1,5.073-1.753c.142.354,2.717,6.273,16.264,6.273,13.666,0,16.162-6.021,16.267-6.279a2.715,2.715,0,0,1,3.423-1.584,2.653,2.653,0,0,1,1.645,3.342C64.15,54.94,60.787,64.424,42.949,64.424ZM64.424,42.949a2.685,2.685,0,0,1-2.684-2.641c-.038-.827-.507-2.727-4.026-2.727-3.833,0-4.026,2.236-4.026,2.684a2.684,2.684,0,1,1-5.369,0c0-3.237,2.5-8.053,9.4-8.053s9.4,4.816,9.4,8.053A2.684,2.684,0,0,1,64.424,42.949Zm-29.528,0a2.685,2.685,0,0,1-2.684-2.641c-.038-.827-.507-2.727-4.026-2.727-3.833,0-4.026,2.236-4.026,2.684a2.684,2.684,0,0,1-5.369,0c0-3.237,2.5-8.053,9.4-8.053s9.4,4.816,9.4,8.053A2.685,2.685,0,0,1,34.9,42.949Z" fill="#006a4e"/>
</svg>
